#Comment line ignore any data following # character 
#Hierarchical Translation and Rotation (.htr) file 
[Header]	
#Header keywords are followed by a single value 
FileType HTR		#Single word string
DataType HTRS		#Translation followed by rotation and scale data
FileVersion 1		#integer
NumSegments 84		#integer
NumFrames 2		#integer
DataFrameRate 30		#integer, data frame rate in this file
EulerRotationOrder ZYX
CalibrationUnits mm
RotationUnits Degrees
GlobalAxisofGravity Y
BoneLengthAxis Y
ScaleFactor 1.00
[SegmentNames&Hierarchy]
#CHILD	PARENT
MASTER GLOBAL
root MASTER
chest root
L_mid_tent01 root
R_mid_tent01 root
spine01 root
Bip01_Neck chest
L_humerus chest
R_humerus chest
weapon_bone chest
Bip01_Head Bip01_Neck
eye_left_bone Bip01_Head
eye_right_bone Bip01_Head
L_forearm L_humerus
L_front_hand L_forearm
L_weapon_bone L_forearm
L_front_hand01_01 L_front_hand
L_front_hand02_01 L_front_hand
L_front_hand03_01 L_front_hand
L_front_hand01_02 L_front_hand01_01
L_front_hand02_02 L_front_hand02_01
L_front_hand03_02 L_front_hand03_01
R_forearm R_humerus
R_front_hand R_forearm
R_weapon_bone R_forearm
R_front_hand01_01 R_front_hand
R_front_hand02_01 R_front_hand
R_front_hand03_01 R_front_hand
R_front_hand01_02 R_front_hand01_01
R_front_hand02_02 R_front_hand02_01
R_front_hand03_02 R_front_hand03_01
null_rope01_connect L_mid_tent01
Rope1_Seg01 null_rope01_connect
Rope1_Seg02 Rope1_Seg01
Rope1_Seg03 Rope1_Seg02
Rope1_Seg04 Rope1_Seg03
Rope1_Seg05 Rope1_Seg04
Rope1_Seg06 Rope1_Seg05
Rope1_Seg07 Rope1_Seg06
Rope1_Seg09 Rope1_Seg07
L_mid_hand01 Rope1_Seg09
L_mid_hand02 Rope1_Seg09
L_mid_hand03 Rope1_Seg09
null_rope02_connect R_mid_tent01
Rope2_Seg01 null_rope02_connect
Rope2_Seg02 Rope2_Seg01
Rope2_Seg03 Rope2_Seg02
Rope2_Seg04 Rope2_Seg03
Rope2_Seg05 Rope2_Seg04
Rope2_Seg06 Rope2_Seg05
Rope2_Seg07 Rope2_Seg06
Rope2_Seg09 Rope2_Seg07
R_mid_hand01 Rope2_Seg09
R_mid_hand02 Rope2_Seg09
R_mid_hand03 Rope2_Seg09
spine02 spine01
spine03 spine02
pelvis spine03
null_rope03_connect pelvis
null_rope04_connect pelvis
Rope3_Seg01 null_rope03_connect
Rope3_Seg02 Rope3_Seg01
Rope3_Seg03 Rope3_Seg02
Rope3_Seg04 Rope3_Seg03
Rope3_Seg05 Rope3_Seg04
Rope3_Seg06 Rope3_Seg05
Rope3_Seg07 Rope3_Seg06
Rope3_Seg08 Rope3_Seg07
Rope3_Seg09 Rope3_Seg08
R_rear_hand01 Rope3_Seg09
R_rear_hand02 Rope3_Seg09
R_rear_hand03 Rope3_Seg09
Rope4_Seg01 null_rope04_connect
Rope4_Seg02 Rope4_Seg01
Rope4_Seg03 Rope4_Seg02
Rope4_Seg04 Rope4_Seg03
Rope4_Seg05 Rope4_Seg04
Rope4_Seg06 Rope4_Seg05
Rope4_Seg07 Rope4_Seg06
Rope4_Seg08 Rope4_Seg07
Rope4_Seg09 Rope4_Seg08
L_rear_hand01 Rope4_Seg09
L_rear_hand02 Rope4_Seg09
L_rear_hand03 Rope4_Seg09
[BasePosition]
#SegmentName Tx, Ty, Tz, Rx, Ry, Rz, BoneLength
MASTER 0.000000 0.000000 0.000000 -90.000000 0.000000 0.000000 10.000000 
root 0.000000 0.000000 0.000000 0.000000 0.000000 0.000000 10.000000 
chest 0.000000 0.000000 0.000000 0.000000 0.000000 0.000000 10.000000 
L_mid_tent01 0.000000 0.000000 0.000000 0.000000 0.000000 0.000000 10.000000 
R_mid_tent01 0.000000 0.000000 0.000000 0.000000 0.000000 0.000000 10.000000 
spine01 0.000000 0.000000 0.000000 0.000000 0.000000 0.000000 10.000000 
Bip01_Neck 0.000000 0.000000 0.000000 0.000000 0.000000 0.000000 10.000000 
L_humerus 0.000000 0.000000 0.000000 0.000000 0.000000 0.000000 10.000000 
R_humerus 0.000000 0.000000 0.000000 0.000000 0.000000 0.000000 10.000000 
weapon_bone 0.000000 0.000000 0.000000 0.000000 0.000000 0.000000 10.000000 
Bip01_Head 0.000000 0.000000 0.000000 0.000000 0.000000 0.000000 10.000000 
eye_left_bone 0.000000 0.000000 0.000000 0.000000 0.000000 0.000000 10.000000 
eye_right_bone 0.000000 0.000000 0.000000 0.000000 0.000000 0.000000 10.000000 
L_forearm 0.000000 0.000000 0.000000 0.000000 0.000000 0.000000 10.000000 
L_front_hand 0.000000 0.000000 0.000000 0.000000 0.000000 0.000000 10.000000 
L_weapon_bone 0.000000 0.000000 0.000000 0.000000 0.000000 0.000000 10.000000 
L_front_hand01_01 0.000000 0.000000 0.000000 0.000000 0.000000 0.000000 10.000000 
L_front_hand02_01 0.000000 0.000000 0.000000 0.000000 0.000000 0.000000 10.000000 
L_front_hand03_01 0.000000 0.000000 0.000000 0.000000 0.000000 0.000000 10.000000 
L_front_hand01_02 0.000000 0.000000 0.000000 0.000000 0.000000 0.000000 10.000000 
L_front_hand02_02 0.000000 0.000000 0.000000 0.000000 0.000000 0.000000 10.000000 
L_front_hand03_02 0.000000 0.000000 0.000000 0.000000 0.000000 0.000000 10.000000 
R_forearm 0.000000 0.000000 0.000000 0.000000 0.000000 0.000000 10.000000 
R_front_hand 0.000000 0.000000 0.000000 0.000000 0.000000 0.000000 10.000000 
R_weapon_bone 0.000000 0.000000 0.000000 0.000000 0.000000 0.000000 10.000000 
R_front_hand01_01 0.000000 0.000000 0.000000 0.000000 0.000000 0.000000 10.000000 
R_front_hand02_01 0.000000 0.000000 0.000000 0.000000 0.000000 0.000000 10.000000 
R_front_hand03_01 0.000000 0.000000 0.000000 0.000000 0.000000 0.000000 10.000000 
R_front_hand01_02 0.000000 0.000000 0.000000 0.000000 0.000000 0.000000 10.000000 
R_front_hand02_02 0.000000 0.000000 0.000000 0.000000 0.000000 0.000000 10.000000 
R_front_hand03_02 0.000000 0.000000 0.000000 0.000000 0.000000 0.000000 10.000000 
null_rope01_connect 0.000000 0.000000 0.000000 0.000000 0.000000 0.000000 10.000000 
Rope1_Seg01 0.000000 0.000000 0.000000 0.000000 0.000000 0.000000 10.000000 
Rope1_Seg02 0.000000 0.000000 0.000000 0.000000 0.000000 0.000000 10.000000 
Rope1_Seg03 0.000000 0.000000 0.000000 0.000000 0.000000 0.000000 10.000000 
Rope1_Seg04 0.000000 0.000000 0.000000 0.000000 0.000000 0.000000 10.000000 
Rope1_Seg05 0.000000 0.000000 0.000000 0.000000 0.000000 0.000000 10.000000 
Rope1_Seg06 0.000000 0.000000 0.000000 0.000000 0.000000 0.000000 10.000000 
Rope1_Seg07 0.000000 0.000000 0.000000 0.000000 0.000000 0.000000 10.000000 
Rope1_Seg09 0.000000 0.000000 0.000000 0.000000 0.000000 0.000000 10.000000 
L_mid_hand01 0.000000 0.000000 0.000000 0.000000 0.000000 0.000000 10.000000 
L_mid_hand02 0.000000 0.000000 0.000000 0.000000 0.000000 0.000000 10.000000 
L_mid_hand03 0.000000 0.000000 0.000000 0.000000 0.000000 0.000000 10.000000 
null_rope02_connect 0.000000 0.000000 0.000000 0.000000 0.000000 0.000000 10.000000 
Rope2_Seg01 0.000000 0.000000 0.000000 0.000000 0.000000 0.000000 10.000000 
Rope2_Seg02 0.000000 0.000000 0.000000 0.000000 0.000000 0.000000 10.000000 
Rope2_Seg03 0.000000 0.000000 0.000000 0.000000 0.000000 0.000000 10.000000 
Rope2_Seg04 0.000000 0.000000 0.000000 0.000000 0.000000 0.000000 10.000000 
Rope2_Seg05 0.000000 0.000000 0.000000 0.000000 0.000000 0.000000 10.000000 
Rope2_Seg06 0.000000 0.000000 0.000000 0.000000 0.000000 0.000000 10.000000 
Rope2_Seg07 0.000000 0.000000 0.000000 0.000000 0.000000 0.000000 10.000000 
Rope2_Seg09 0.000000 0.000000 0.000000 0.000000 0.000000 0.000000 10.000000 
R_mid_hand01 0.000000 0.000000 0.000000 0.000000 0.000000 0.000000 10.000000 
R_mid_hand02 0.000000 0.000000 0.000000 0.000000 0.000000 0.000000 10.000000 
R_mid_hand03 0.000000 0.000000 0.000000 0.000000 0.000000 0.000000 10.000000 
spine02 0.000000 0.000000 0.000000 0.000000 0.000000 0.000000 10.000000 
spine03 0.000000 0.000000 0.000000 0.000000 0.000000 0.000000 10.000000 
pelvis 0.000000 0.000000 0.000000 0.000000 0.000000 0.000000 10.000000 
null_rope03_connect 0.000000 0.000000 0.000000 0.000000 0.000000 0.000000 10.000000 
null_rope04_connect 0.000000 0.000000 0.000000 0.000000 0.000000 0.000000 10.000000 
Rope3_Seg01 0.000000 0.000000 0.000000 0.000000 0.000000 0.000000 10.000000 
Rope3_Seg02 0.000000 0.000000 0.000000 0.000000 0.000000 0.000000 10.000000 
Rope3_Seg03 0.000000 0.000000 0.000000 0.000000 0.000000 0.000000 10.000000 
Rope3_Seg04 0.000000 0.000000 0.000000 0.000000 0.000000 0.000000 10.000000 
Rope3_Seg05 0.000000 0.000000 0.000000 0.000000 0.000000 0.000000 10.000000 
Rope3_Seg06 0.000000 0.000000 0.000000 0.000000 0.000000 0.000000 10.000000 
Rope3_Seg07 0.000000 0.000000 0.000000 0.000000 0.000000 0.000000 10.000000 
Rope3_Seg08 0.000000 0.000000 0.000000 0.000000 0.000000 0.000000 10.000000 
Rope3_Seg09 0.000000 0.000000 0.000000 0.000000 0.000000 0.000000 10.000000 
R_rear_hand01 0.000000 0.000000 0.000000 0.000000 0.000000 0.000000 10.000000 
R_rear_hand02 0.000000 0.000000 0.000000 0.000000 0.000000 0.000000 10.000000 
R_rear_hand03 0.000000 0.000000 0.000000 0.000000 0.000000 0.000000 10.000000 
Rope4_Seg01 0.000000 0.000000 0.000000 0.000000 0.000000 0.000000 10.000000 
Rope4_Seg02 0.000000 0.000000 0.000000 0.000000 0.000000 0.000000 10.000000 
Rope4_Seg03 0.000000 0.000000 0.000000 0.000000 0.000000 0.000000 10.000000 
Rope4_Seg04 0.000000 0.000000 0.000000 0.000000 0.000000 0.000000 10.000000 
Rope4_Seg05 0.000000 0.000000 0.000000 0.000000 0.000000 0.000000 10.000000 
Rope4_Seg06 0.000000 0.000000 0.000000 0.000000 0.000000 0.000000 10.000000 
Rope4_Seg07 0.000000 0.000000 0.000000 0.000000 0.000000 0.000000 10.000000 
Rope4_Seg08 0.000000 0.000000 0.000000 0.000000 0.000000 0.000000 10.000000 
Rope4_Seg09 0.000000 0.000000 0.000000 0.000000 0.000000 0.000000 10.000000 
L_rear_hand01 0.000000 0.000000 0.000000 0.000000 0.000000 0.000000 10.000000 
L_rear_hand02 0.000000 0.000000 0.000000 0.000000 0.000000 0.000000 10.000000 
L_rear_hand03 0.000000 0.000000 0.000000 0.000000 0.000000 0.000000 10.000000 
#Beginning of Data. Separated by tabs
#Fr	Tx	Ty	Tz	Rx	Ry	Rz	SF
[MASTER]
9 0.000000 0.000000 0.000000 0.001660 0.001660 0.001660 0.000000
10 0.000000 0.000000 0.000000 0.001660 0.001660 0.001660 0.000000
[root]
9 -18.517786 -62.773479 1378.818481 -91.632408 -28.046757 -90.143600 1380.370972
10 -19.327896 -62.771538 1363.708496 -91.634567 -28.093220 -90.141815 1365.289307
[chest]
9 -84.512650 -34.090519 0.000000 -7.226775 4.408504 -179.159409 91.129311
10 -84.512650 -34.090519 0.000000 -7.437970 4.740751 -179.268295 91.129311
[L_mid_tent01]
9 27.299501 22.177494 -249.917999 -1.418448 1.224935 51.230053 252.380875
10 27.299503 22.177488 -249.917999 -0.488819 -3.908242 45.037018 252.380875
[R_mid_tent01]
9 23.228794 24.509907 226.238495 176.777420 -11.757753 49.880001 228.744751
10 23.228794 24.509907 226.238495 177.325882 -4.272843 43.556187 228.744751
[spine01]
9 -0.361383 -0.195265 0.000000 0.675308 0.456965 14.452329 0.410763
10 -0.361383 -0.195265 0.000000 0.643800 0.455821 14.320057 0.410763
[Bip01_Neck]
9 165.484543 71.581718 0.000119 175.896118 1.177290 24.871185 180.302734
10 165.484543 71.581718 0.000119 175.896118 1.177290 24.871183 180.302734
[L_humerus]
9 -13.983130 -135.272980 -120.471481 -175.931274 7.017453 -84.303284 181.680161
10 -13.983130 -135.272980 -120.471481 -176.397598 11.178950 -87.528473 181.680161
[R_humerus]
9 -13.983309 -135.273102 125.287651 -173.384979 -0.890881 -86.693703 184.909012
10 -13.983309 -135.273102 125.287651 -173.259506 -4.537557 -89.806274 184.909012
[weapon_bone]
9 235.964890 -300.705902 0.000000 0.000000 -89.951546 -128.212341 382.234833
10 235.964890 -300.705902 0.000000 0.000000 -89.951546 -128.212341 382.234833
[Bip01_Head]
9 257.349121 114.289330 -28.219875 -1.324426 5.715270 -65.440781 282.996460
10 256.524292 116.249542 -29.074583 -1.449772 5.667285 -65.905396 283.132477
[eye_left_bone]
9 -24.626970 125.451866 -64.772606 0.000000 -90.000000 -99.840431 143.318359
10 -24.626970 125.451866 -64.772606 0.000000 -90.000000 -99.840431 143.318359
[eye_right_bone]
9 -24.626970 125.451866 64.327362 0.000000 -89.960434 80.159386 143.117676
10 -24.626970 125.451866 64.327362 0.000000 -89.972023 80.159393 143.117676
[L_forearm]
9 322.776093 0.000000 -0.000119 0.000167 0.002341 -81.854446 322.776093
10 322.776093 0.000000 -0.000119 0.000161 0.002342 -82.129662 322.776093
[L_front_hand]
9 241.149185 -0.042021 -3.300071 -179.567490 -2.228432 -2.480273 241.171753
10 241.149185 -0.042021 -3.300071 -179.549637 -2.221653 -2.896225 241.171753
[L_weapon_bone]
9 156.183838 0.000000 0.000000 0.002114 0.001020 38.460217 156.183838
10 156.183838 0.000000 0.000000 0.002126 0.000995 39.830204 156.183838
[L_front_hand01_01]
9 86.095154 20.947098 -0.655860 0.405585 -0.442306 -4.620490 88.609184
10 86.095154 20.947098 -0.655860 0.405585 -0.442306 -4.620490 88.609184
[L_front_hand02_01]
9 86.935165 -11.437475 24.513514 116.959450 3.630817 1.495453 91.046425
10 86.935165 -11.437475 24.513514 116.959450 3.630817 1.495453 91.046425
[L_front_hand03_01]
9 86.637497 -14.123976 -20.424902 -118.420097 -4.656303 -0.152527 90.126129
10 86.637497 -14.123976 -20.424902 -118.420097 -4.656303 -0.152527 90.126129
[L_front_hand01_02]
9 71.020905 -0.000179 0.000030 0.001534 0.001777 -8.378850 71.020905
10 71.020905 -0.000179 0.000030 0.001534 0.001777 -8.378848 71.020905
[L_front_hand02_02]
9 71.020927 -0.000119 0.000060 0.001534 0.001777 -8.378850 71.020927
10 71.020927 -0.000119 0.000060 0.001534 0.001777 -8.378848 71.020927
[L_front_hand03_02]
9 71.020905 -0.000060 0.000060 0.001534 0.001777 -8.378850 71.020905
10 71.020905 -0.000060 0.000060 0.001534 0.001777 -8.378848 71.020905
[R_forearm]
9 322.776428 -0.000060 0.000030 0.212142 -0.027081 -83.567749 322.776428
10 322.776428 -0.000060 0.000030 0.211995 -0.028207 -82.959000 322.776428
[R_front_hand]
9 238.847015 -0.006795 2.210259 -0.472281 1.661734 -4.615128 238.857239
10 238.847015 -0.006795 2.210259 -0.301543 1.701446 1.233768 238.857239
[R_weapon_bone]
9 155.664093 0.002503 -0.000030 0.002840 0.002341 -132.597107 155.664078
10 155.664093 0.002503 -0.000030 0.002802 0.002387 -134.475479 155.664078
[R_front_hand01_01]
9 87.624611 14.231146 22.918642 -116.960213 3.496675 -1.324139 91.683487
10 87.624611 14.231146 22.918642 -116.960213 3.496675 -1.324139 91.683487
[R_front_hand02_01]
9 89.356956 14.367283 -19.491137 118.419647 -4.257089 0.609827 92.579636
10 89.356956 14.367283 -19.491137 118.419647 -4.257089 0.609827 92.579636
[R_front_hand03_01]
9 87.286232 -22.307278 -0.143439 -0.387970 -0.231462 4.232001 90.091743
10 87.286232 -22.307278 -0.143439 -0.387970 -0.231462 4.232001 90.091743
[R_front_hand01_02]
9 71.020905 0.000060 0.000119 0.001777 0.001534 8.377220 71.020905
10 71.020905 0.000060 0.000119 0.001777 0.001534 8.377220 71.020905
[R_front_hand02_02]
9 71.020844 -0.000030 -0.000119 0.001777 0.001534 8.377220 71.020836
10 71.020844 -0.000030 -0.000119 0.001777 0.001534 8.377220 71.020836
[R_front_hand03_02]
9 71.020905 0.000000 0.000030 0.001777 0.001534 8.377220 71.020905
10 71.020905 0.000000 0.000030 0.001777 0.001534 8.377220 71.020905
[null_rope01_connect]
9 328.732483 0.000000 -0.000238 -155.439041 -86.449066 -137.759933 328.732483
10 328.732483 0.000000 -0.000238 104.520340 -86.929222 -31.481592 328.732483
[Rope1_Seg01]
9 0.000000 0.000000 0.000000 144.994766 49.468807 -178.628357 0.000000
10 0.000000 0.000000 0.000000 -66.281601 36.827095 -96.273300 0.000000
[Rope1_Seg02]
9 139.999863 -0.000179 0.000000 0.036361 -16.137333 12.926406 139.999863
10 139.999863 -0.000179 0.000000 -30.062153 11.115103 14.439295 139.999863
[Rope1_Seg03]
9 139.999924 0.000060 -0.000060 -7.385965 -30.727016 25.917093 139.999924
10 139.999924 0.000060 -0.000060 -18.377880 7.715615 81.823067 139.999924
[Rope1_Seg04]
9 139.999924 -0.000060 -0.000119 -5.044123 -19.097174 19.181190 139.999924
10 139.999924 -0.000060 -0.000119 4.948524 -8.986737 29.597864 139.999924
[Rope1_Seg05]
9 139.999832 0.000119 -0.000060 5.887151 -0.305444 7.409591 139.999832
10 139.999832 0.000119 -0.000060 0.724031 -2.813340 4.452403 139.999832
[Rope1_Seg06]
9 139.999954 0.000119 -0.000060 2.586592 -0.990627 3.828885 139.999954
10 139.999954 0.000119 -0.000060 -0.594957 -2.854896 2.495270 139.999954
[Rope1_Seg07]
9 139.999985 0.000060 0.000000 1.624254 -0.724289 2.350938 139.999985
10 139.999985 0.000060 0.000000 0.767168 -1.540031 2.677405 139.999985
[Rope1_Seg09]
9 121.602913 0.000119 -0.000089 -89.793175 -1.359789 0.847147 121.602913
10 121.602913 0.000119 -0.000089 -89.793175 -1.359789 0.847147 121.602913
[L_mid_hand01]
9 103.859421 1.038730 8.195221 104.352036 0.341479 -0.444583 104.187431
10 103.859421 1.038730 8.195221 104.352036 0.341479 -0.444583 104.187431
[L_mid_hand02]
9 105.572853 -4.139662 -10.864139 -135.608444 3.905687 -3.381056 106.211075
10 105.572853 -4.139662 -10.864139 -135.608444 3.905687 -3.381056 106.211075
[L_mid_hand03]
9 104.641464 17.579376 -3.913581 -18.761518 -0.324361 2.942912 106.179977
10 104.641464 17.579376 -3.913581 -18.761518 -0.324361 2.942912 106.179977
[null_rope02_connect]
9 328.732849 0.000179 -0.000119 -89.654915 78.799866 21.982164 328.732849
10 328.732849 0.000179 -0.000119 -53.684959 85.133247 51.742996 328.732849
[Rope2_Seg01]
9 -0.000006 0.000086 0.000087 -111.625397 54.436863 -12.969939 0.000122
10 -0.000002 0.000087 0.000083 129.659454 34.758450 -80.483719 0.000120
[Rope2_Seg02]
9 139.999741 -0.000060 -0.000119 10.868880 -36.100018 -3.957268 139.999756
10 139.999741 -0.000060 -0.000119 50.647827 -13.964252 -42.465698 139.999756
[Rope2_Seg03]
9 140.000107 0.000030 0.000000 -0.703834 -31.469410 2.358144 140.000107
10 140.000107 0.000030 0.000000 44.165001 -60.341061 -56.657253 140.000107
[Rope2_Seg04]
9 139.999802 0.000000 -0.000060 -2.219448 -14.616313 1.298733 139.999802
10 139.999802 0.000000 -0.000060 -2.900040 -11.190559 -2.398715 139.999802
[Rope2_Seg05]
9 139.999985 -0.000060 0.000119 -2.025020 -8.516602 0.707993 139.999985
10 139.999985 -0.000060 0.000119 -1.625505 -5.746662 -0.238654 139.999985
[Rope2_Seg06]
9 139.999893 -0.000030 -0.000119 -1.790045 -5.403600 0.195078 139.999893
10 139.999893 -0.000030 -0.000119 -1.806481 -4.868931 -0.436414 139.999893
[Rope2_Seg07]
9 139.999893 0.000060 -0.000060 -1.433470 -3.490735 0.005752 139.999893
10 139.999893 0.000060 -0.000060 -1.705410 -3.387143 -0.670379 139.999893
[Rope2_Seg09]
9 121.338966 0.000089 -0.000060 33.793236 -1.359788 -0.847141 121.338966
10 121.338966 0.000089 -0.000060 33.793236 -1.359788 -0.847141 121.338966
[R_mid_hand01]
9 104.680779 11.144459 -10.335981 -47.384258 2.963523 5.452605 105.778534
10 104.680779 11.144459 -10.335981 -47.375107 3.181660 5.654842 105.778534
[R_mid_hand02]
9 104.070427 2.443552 8.231699 75.626297 -2.250002 1.111093 104.424065
10 104.070427 2.443552 8.231699 75.620827 -2.540148 1.186644 104.424065
[R_mid_hand03]
9 106.028137 -11.221827 -5.996406 -164.381912 2.495984 -6.140521 106.788818
10 106.028137 -11.221827 -5.996406 -164.395157 2.574564 -6.425120 106.788818
[spine02]
9 129.756927 0.001550 0.000119 -0.232294 -4.245717 -4.643157 129.756927
10 129.756927 0.001550 0.000119 -0.225920 -4.247393 -4.724295 129.756927
[spine03]
9 78.654404 0.080109 -4.501857 0.883744 3.420670 -0.120390 78.783165
10 78.668274 0.077693 -4.366497 0.960760 3.240996 0.672064 78.789398
[pelvis]
9 169.435242 0.051022 0.000000 0.002583 0.301801 -2.153139 169.435257
10 169.435242 0.051022 0.000000 0.004174 0.382629 -2.209196 169.435257
[null_rope03_connect]
9 -1.257226 -2.466202 137.391083 0.000000 -89.481873 110.525047 137.418976
10 -1.257226 -2.466202 137.391083 0.000000 -89.551933 110.043739 137.418976
[null_rope04_connect]
9 -1.259640 -2.480268 -137.844437 0.000000 -89.481873 110.525047 137.872513
10 -1.259640 -2.480268 -137.844437 0.000000 -89.551933 110.043739 137.872513
[Rope3_Seg01]
9 0.000000 0.000000 0.000000 -138.963959 -38.731182 -69.444420 0.000000
10 0.000000 0.000000 0.000000 -144.659393 -44.274914 -63.503445 0.000000
[Rope3_Seg02]
9 139.999924 -0.000119 0.000060 -4.148474 2.672626 -13.581089 139.999924
10 139.999924 -0.000119 0.000060 -5.192124 2.656009 -13.534913 139.999924
[Rope3_Seg03]
9 139.999924 -0.000119 0.000119 -40.644913 11.804759 -47.259148 139.999924
10 139.999924 -0.000119 0.000119 -36.079140 10.319180 -39.326969 139.999924
[Rope3_Seg04]
9 139.999924 0.000119 0.000000 -47.841366 32.449123 -30.184462 139.999924
10 139.999924 0.000119 0.000000 -49.279335 29.284689 -29.986048 139.999924
[Rope3_Seg05]
9 139.999924 -0.000238 0.000060 -11.923702 25.638857 -2.562808 139.999924
10 139.999924 -0.000238 0.000060 -10.820279 22.163752 0.073076 139.999924
[Rope3_Seg06]
9 139.999893 -0.000119 -0.000060 -3.218680 20.761972 1.720797 139.999893
10 139.999893 -0.000119 -0.000060 -3.354253 22.620462 4.802273 139.999893
[Rope3_Seg07]
9 139.999771 0.000060 -0.000119 0.175062 8.544321 1.457995 139.999771
10 139.999771 0.000060 -0.000119 0.381706 11.742411 3.307834 139.999771
[Rope3_Seg08]
9 139.999985 -0.000060 0.000000 0.594128 4.385891 0.737128 139.999985
10 139.999985 -0.000060 0.000000 0.852996 5.710198 1.579363 139.999985
[Rope3_Seg09]
9 90.185997 -0.000179 -0.000060 89.793228 -1.359877 -0.847183 90.185997
10 90.185997 -0.000179 -0.000060 89.793228 -1.359877 -0.847183 90.185997
[R_rear_hand01]
9 103.366196 -6.073594 -10.757982 -166.970276 21.129850 -46.704163 104.101845
10 103.366196 -6.073594 -10.757982 -164.449982 19.387613 -39.430145 104.101845
[R_rear_hand02]
9 100.509819 12.039542 -7.992327 -28.148878 27.804184 44.102692 101.543350
10 100.509819 12.039542 -7.992327 -31.145708 24.319061 37.292130 101.543350
[R_rear_hand03]
9 101.539970 5.215704 5.435467 81.628387 -47.127697 10.016962 101.819031
10 101.539970 5.215704 5.435467 82.550941 -40.154560 8.684566 101.819031
[Rope4_Seg01]
9 0.000010 0.000038 -0.000114 47.091522 -24.265751 -99.947044 0.000121
10 0.000010 0.000038 -0.000114 49.018612 -31.033436 -102.629967 0.000121
[Rope4_Seg02]
9 139.999985 0.000060 0.000119 2.296849 -20.380438 4.042869 139.999985
10 139.999985 0.000060 0.000119 3.416328 -20.731249 4.302403 139.999985
[Rope4_Seg03]
9 139.999924 0.000000 -0.000238 30.470318 -55.039543 21.157707 139.999924
10 139.999924 0.000000 -0.000238 29.356819 -47.348156 17.440187 139.999924
[Rope4_Seg04]
9 139.999985 0.000000 0.000119 29.791639 -15.256596 23.791180 139.999985
10 139.999985 0.000000 0.000119 29.626261 -15.926500 21.840197 139.999985
[Rope4_Seg05]
9 139.999802 -0.000060 -0.000119 16.066383 -1.264007 21.750021 139.999802
10 139.999802 -0.000060 -0.000119 15.687709 -1.599197 18.978777 139.999802
[Rope4_Seg06]
9 139.999924 0.000000 0.000060 11.684502 6.126987 29.469791 139.999924
10 139.999924 0.000000 0.000060 13.151028 5.328587 28.644545 139.999924
[Rope4_Seg07]
9 139.999802 0.000000 0.000000 2.056208 5.366037 12.950427 139.999802
10 139.999802 0.000000 0.000000 3.295381 6.550740 15.849845 139.999802
[Rope4_Seg08]
9 139.999924 0.000000 0.000119 -1.288258 2.602643 5.792893 139.999924
10 139.999924 0.000000 0.000119 -1.100528 3.163443 6.743804 139.999924
[Rope4_Seg09]
9 90.185791 0.000060 0.000060 -135.617828 2.228885 0.850567 90.185791
10 90.185791 0.000060 0.000060 -135.617828 2.228885 0.850567 90.185791
[L_rear_hand01]
9 101.696655 -8.392275 -7.654577 -27.705498 -28.251698 134.947845 102.329041
10 101.696655 -8.392275 -7.654577 -31.051279 -24.449524 142.474380 102.329041
[L_rear_hand02]
9 102.726799 -1.568258 5.773216 81.477219 48.065056 169.775513 102.900848
10 102.726799 -1.568258 5.773216 82.520493 40.398952 171.273941 102.900848
[L_rear_hand03]
9 104.552910 9.721220 -10.420293 -167.330078 -21.338421 -132.303955 105.519653
10 104.552910 9.721220 -10.420293 -164.531235 -19.454706 -140.315262 105.519653
